<?xml version="1.0" standalone="no"?>
<!DOCTYPE svg PUBLIC "-//W3C//DTD SVG 20010904//EN"
 "http://www.w3.org/TR/2001/REC-SVG-20010904/DTD/svg10.dtd">
<svg version="1.0" xmlns="http://www.w3.org/2000/svg"
 width="329.000000pt" height="329.000000pt" viewBox="0 0 329.000000 329.000000"
 preserveAspectRatio="xMidYMid meet">
<metadata>
Created by potrace 1.11, written by Peter Selinger 2001-2013
</metadata>
<g transform="translate(0.000000,329.000000) scale(0.100000,-0.100000)"
fill="#000000" stroke="none">
<path d="M0 1645 l0 -1645 1645 0 1645 0 0 1645 0 1645 -1645 0 -1645 0 0
-1645z m2589 1382 c-2 -1 -13 -9 -24 -17 -19 -14 -19 -14 -6 3 7 9 18 17 24
17 6 0 8 -1 6 -3z m-44 -47 c-4 -6 -22 -17 -41 -25 -35 -15 -114 -91 -114
-112 0 -6 -9 -14 -19 -18 -32 -10 -43 -32 -47 -91 -2 -31 -6 -65 -9 -75 -3
-11 -8 -28 -11 -39 -4 -17 -1 -20 24 -20 16 0 39 -9 52 -20 28 -24 34 -25 54
-4 15 14 16 14 16 -2 0 -13 6 -15 29 -11 15 3 33 1 39 -5 14 -14 31 -17 94
-21 25 -1 44 -5 41 -9 -2 -5 2 -8 9 -9 23 -1 50 -7 55 -13 3 -3 14 -1 24 5 15
8 17 6 12 -7 -7 -18 -51 -15 -113 9 -8 3 -30 8 -49 11 -29 5 -32 4 -21 -9 8
-10 9 -15 2 -15 -6 0 -15 6 -19 14 -13 22 -45 33 -106 35 -42 2 -64 8 -78 22
-17 17 -39 25 -39 15 0 -3 4 -16 10 -30 5 -14 6 -27 2 -30 -4 -3 -9 5 -9 16
-2 21 -29 47 -50 48 -17 0 -113 -90 -113 -106 0 -7 -12 -26 -26 -41 -14 -15
-30 -39 -35 -52 -8 -20 -4 -28 28 -57 21 -19 43 -34 48 -34 6 0 5 4 -2 8 -8 5
-2 12 20 20 29 10 30 10 13 -3 -11 -8 -17 -18 -13 -21 4 -4 14 -1 24 7 14 11
15 11 9 0 -7 -10 -3 -12 13 -6 11 3 21 3 21 -2 0 -9 104 -8 119 2 6 3 11 1 11
-4 0 -6 -8 -11 -17 -12 -58 -3 -68 -5 -70 -14 -3 -11 19 -14 27 -4 3 4 17 -1
30 -12 18 -14 20 -17 6 -12 -14 4 -17 3 -12 -6 4 -6 17 -11 29 -9 13 2 21 -2
19 -9 -1 -8 8 -13 23 -13 14 0 25 -4 25 -9 0 -5 23 -7 51 -5 34 2 60 -2 77
-12 16 -9 19 -13 7 -9 -45 14 -73 16 -79 6 -10 -15 13 -53 26 -45 7 4 8 3 4
-4 -11 -18 -31 -4 -43 29 -7 18 -16 28 -23 24 -6 -4 -17 -1 -25 5 -8 7 -15 10
-15 6 0 -3 -11 -1 -25 4 -20 7 -25 6 -25 -5 0 -8 9 -15 20 -15 11 0 20 -4 20
-9 0 -14 81 -91 96 -91 8 0 14 -3 14 -7 0 -12 -20 -39 -20 -28 0 6 -9 21 -20
35 -18 23 -20 23 -19 5 0 -11 16 -38 35 -60 20 -22 34 -35 31 -30 -3 6 1 16 9
23 21 19 17 -5 -4 -26 -14 -14 -16 -21 -6 -30 6 -6 14 -9 16 -6 7 7 88 -67 88
-80 0 -24 41 -66 83 -86 23 -10 34 -19 24 -20 -25 0 -15 -29 29 -87 19 -25 34
-48 34 -53 0 -5 3 -17 6 -27 5 -16 4 -16 -10 1 -9 11 -16 16 -16 10 0 -5 -8 0
-16 11 -16 20 -16 20 -9 -3 12 -41 46 -112 53 -112 10 -1 38 -41 46 -67 7 -21
5 -22 -31 -17 -51 6 -80 35 -78 79 0 22 -4 35 -12 35 -8 0 -11 -10 -8 -32 5
-34 4 -32 -22 40 -8 24 -18 41 -21 38 -3 -3 -11 -1 -19 5 -10 9 -13 8 -13 0 0
-7 -4 -10 -9 -7 -4 3 -6 -5 -4 -19 4 -20 2 -23 -17 -18 -15 4 -26 -1 -36 -16
-8 -11 -20 -21 -25 -21 -6 0 -24 -13 -40 -29 -23 -23 -28 -36 -24 -58 3 -22
-1 -33 -20 -47 -14 -10 -25 -27 -25 -36 0 -10 -7 -20 -15 -24 -8 -3 -15 -12
-15 -20 0 -10 -6 -13 -15 -10 -11 5 -13 2 -9 -9 4 -11 -8 -29 -35 -53 -22 -21
-37 -42 -34 -48 3 -6 3 -8 -1 -5 -4 4 -21 -6 -39 -22 -17 -16 -37 -29 -43 -29
-13 0 -45 -34 -43 -46 1 -5 0 -12 -1 -16 -1 -5 -3 -13 -4 -20 0 -6 -9 -12 -19
-14 -10 -1 -29 -9 -42 -18 -27 -18 -49 -21 -40 -6 3 6 2 10 -4 10 -6 0 -9 -13
-7 -28 3 -27 -16 -57 -28 -44 -4 3 -4 -1 -1 -10 4 -11 -2 -26 -18 -42 -19 -18
-22 -27 -13 -37 8 -9 8 -10 0 -6 -14 8 -26 -30 -13 -39 5 -3 10 3 10 13 1 17
2 17 6 0 2 -9 10 -15 16 -11 7 3 4 -1 -5 -9 -18 -14 -25 -47 -10 -47 4 0 28
11 53 24 35 17 45 27 38 37 -15 24 -10 39 15 39 13 0 45 9 71 20 26 11 58 20
71 20 13 0 24 5 24 11 0 6 8 8 18 5 9 -3 31 -2 47 3 21 7 24 10 10 10 -15 1
-17 3 -7 10 9 5 -9 11 -49 15 -38 5 -58 11 -50 15 30 19 288 7 309 -14 4 -3 1
-15 -6 -25 -7 -11 -12 -22 -12 -24 0 -13 49 2 74 21 22 18 27 28 22 48 -4 14
-3 26 1 26 26 5 63 4 63 -1 -1 -3 -7 -16 -15 -30 -18 -32 -18 -35 1 -54 18
-19 74 -22 74 -4 0 6 3 8 7 5 3 -4 13 -1 22 6 14 10 14 10 4 -3 -6 -8 -12 -19
-12 -25 -2 -23 -45 -67 -79 -82 -20 -9 -54 -25 -75 -35 -33 -17 -50 -19 -120
-13 -150 12 -175 10 -202 -15 -19 -17 -41 -24 -100 -30 -42 -4 -82 -13 -88
-19 -18 -18 -25 -13 -32 19 -4 19 -2 37 6 46 19 23 4 27 -31 9 -18 -9 -29 -19
-26 -22 7 -7 -24 -32 -39 -33 -5 0 -4 4 4 9 11 7 10 13 -4 35 -21 31 -29 26
-44 -28 -12 -46 -8 -55 18 -39 16 10 18 9 14 -7 -3 -11 -8 -18 -12 -16 -12 7
-26 -19 -26 -49 0 -23 4 -29 17 -27 10 2 27 -2 39 -8 13 -7 25 -8 32 -2 15 12
47 12 47 0 0 -5 -11 -19 -25 -32 -24 -23 -66 -37 -150 -52 l-40 -7 44 -8 c44
-9 66 -19 40 -19 -30 0 -40 -15 -30 -43 7 -17 7 -27 1 -27 -6 0 -10 9 -10 19
0 22 -38 54 -53 44 -5 -3 4 -14 20 -24 15 -10 23 -19 18 -19 -6 0 -16 5 -23
12 -15 15 -27 4 -16 -14 12 -19 14 -39 3 -32 -9 5 -13 -9 -10 -33 1 -6 -3 -14
-8 -17 -5 -4 -8 9 -5 31 2 21 0 44 -4 51 -12 18 -42 4 -35 -15 4 -11 2 -14 -8
-11 -8 3 -13 12 -11 22 2 9 -4 16 -12 16 -19 0 -14 -26 10 -48 10 -11 33 -36
49 -56 17 -21 38 -45 48 -54 9 -9 17 -25 17 -36 0 -11 8 -29 18 -40 17 -21 17
-21 -5 -2 -13 11 -23 29 -23 40 0 12 -9 27 -20 34 -11 7 -20 17 -20 22 0 13
-37 50 -49 50 -17 0 -51 57 -51 84 0 16 -6 26 -15 26 -8 0 -15 5 -15 11 0 5
-4 7 -10 4 -5 -3 -10 -1 -10 4 0 13 -22 10 -33 -4 -4 -6 -7 -1 -5 10 4 34 -19
64 -50 63 -15 0 -53 5 -86 11 -32 7 -69 10 -81 7 -13 -3 -27 0 -34 8 -7 8 -24
17 -39 20 -15 4 -52 18 -82 32 -30 15 -73 34 -95 44 -22 11 -51 21 -65 24 -14
3 -44 21 -67 41 -23 19 -45 35 -50 35 -5 0 -25 19 -44 42 -64 77 -87 97 -131
108 -23 7 -45 15 -48 19 -11 14 -80 40 -80 30 0 -6 -13 -1 -29 11 -16 11 -33
19 -38 18 -39 -11 -294 113 -360 175 -30 28 -46 56 -24 42 5 -3 12 -1 16 5 9
14 116 3 190 -20 68 -21 121 -24 131 -8 4 6 3 8 -2 5 -6 -3 -10 6 -11 21 0 15
1 19 4 10 2 -10 12 -18 21 -17 11 0 12 2 5 6 -7 2 -13 9 -13 14 0 6 5 7 10 4
6 -4 23 5 37 19 14 14 22 26 17 26 -5 0 -2 5 6 10 9 6 11 10 3 10 -7 0 -10 7
-7 15 4 9 0 15 -9 15 -9 0 -18 4 -21 9 -4 5 4 7 16 3 22 -5 22 -4 5 15 -9 11
-17 27 -17 36 0 9 -10 21 -22 28 -18 10 -20 9 -15 -5 4 -10 3 -15 -3 -11 -6 3
-10 13 -10 22 0 12 -3 13 -14 4 -14 -12 -73 -5 -82 10 -3 5 8 6 25 3 26 -5 30
-4 28 15 -1 11 -6 21 -12 21 -6 0 -21 18 -33 39 -27 47 -72 71 -72 37 0 -7 -7
-19 -15 -26 -10 -9 -15 -9 -15 -1 0 8 -6 8 -20 -1 -13 -9 -19 -22 -18 -41 l2
-29 24 29 24 28 -15 -30 c-8 -16 -27 -41 -41 -54 -14 -14 -26 -34 -26 -46 0
-12 -9 -34 -21 -49 -11 -15 -22 -34 -23 -43 -2 -9 -11 -18 -21 -19 -13 -2 -15
0 -6 9 6 6 11 28 11 49 0 43 27 103 59 132 19 18 31 53 13 42 -4 -2 -15 2 -26
9 -24 18 -15 47 35 107 43 52 46 58 24 58 -18 0 -18 4 -3 72 6 29 11 56 10 61
-1 4 2 7 6 7 5 0 14 11 19 23 9 19 8 24 -3 24 -8 0 -14 -4 -14 -9 0 -4 -7 -8
-16 -8 -8 0 -13 4 -10 9 4 5 0 12 -6 14 -7 3 8 6 35 6 35 1 47 5 47 16 0 8 5
14 12 13 6 -2 20 15 31 37 21 44 39 61 80 76 15 6 27 18 28 27 0 11 2 12 6 5
7 -19 42 3 40 26 0 10 -6 17 -12 16 -49 -15 -65 -15 -65 0 0 9 -4 14 -10 10
-5 -3 -6 -13 -3 -22 6 -15 5 -16 -9 -3 -9 8 -13 19 -10 24 3 5 -5 7 -16 4 -12
-4 -22 -2 -22 3 0 4 -6 7 -13 5 -6 -3 -28 -7 -47 -10 -25 -4 -31 -3 -20 4 8 5
27 10 42 10 15 0 30 5 33 10 4 6 13 7 23 1 15 -8 41 -8 107 1 23 3 46 29 38
42 -4 5 -1 6 6 2 6 -4 9 -12 6 -17 -4 -5 3 -5 18 0 14 6 28 7 31 4 3 -4 6 -1
6 5 0 7 7 12 15 12 8 0 15 4 15 10 0 5 6 7 14 4 19 -7 32 16 15 27 -8 5 -9 9
-3 9 5 0 15 -5 21 -11 7 -7 15 -6 25 5 9 8 18 13 21 10 3 -3 16 0 29 7 12 7
26 12 31 11 4 -1 7 3 7 10 0 6 3 9 6 5 8 -8 54 15 93 48 45 39 83 127 60 141
-5 3 1 14 12 25 16 16 19 29 15 67 -4 45 -3 49 30 72 29 19 34 28 30 49 l-5
26 11 -24 c11 -21 9 -27 -18 -50 -26 -22 -31 -34 -33 -75 -1 -28 -4 -53 -7
-58 -3 -4 -7 -17 -9 -27 -3 -16 1 -19 23 -17 15 1 40 -7 57 -20 41 -29 76 -37
73 -17 -2 9 2 18 9 20 7 3 9 -3 6 -16 -6 -23 6 -28 24 -10 8 8 17 8 32 0 18
-10 21 -9 22 6 0 14 2 13 9 -4 13 -32 25 -29 50 12 24 39 38 48 18 13 -27 -50
-23 -51 72 -17 60 21 64 21 115 20 28 -1 63 3 78 8 16 6 26 8 24 3 -3 -4 8 -7
23 -7 15 0 26 3 24 7 -3 4 6 10 20 14 24 6 45 39 32 51 -3 3 1 21 9 40 8 20
15 46 15 59 0 13 4 24 9 24 10 0 28 43 34 80 4 23 4 23 6 -4 0 -15 -7 -45 -18
-65 -26 -50 -41 -102 -41 -138 0 -18 -7 -38 -15 -47 -19 -18 -19 -27 -1 -20 8
3 17 0 22 -7 5 -8 3 -10 -6 -4 -8 5 -11 4 -7 -2 10 -16 54 -22 67 -9 8 8 9 6
4 -8 -6 -16 -4 -18 17 -13 13 3 51 9 84 12 38 4 64 12 70 22 6 9 22 30 36 47
15 17 29 41 33 54 4 12 20 29 36 37 16 8 31 24 35 35 4 11 15 20 26 20 24 0
47 50 54 116 7 84 14 101 46 114 16 7 29 18 29 26 0 7 6 17 13 21 8 4 21 19
30 33 9 14 33 33 54 44 21 10 45 22 53 27 20 11 22 11 15 -1z m-587 -177 c-21
-3 -28 -10 -29 -26 0 -12 -4 -31 -9 -42 -7 -14 -8 -8 -3 20 8 53 10 55 41 54
l27 -2 -27 -4z m-664 -24 c-3 -6 0 -15 7 -20 11 -7 10 -9 -3 -9 -18 0 -24 20
-11 33 10 11 15 8 7 -4z m-103 -71 c-4 -27 -6 -29 -9 -10 -2 12 -8 22 -13 22
-6 0 -7 5 -4 10 15 24 31 9 26 -22z m-59 -97 c8 11 9 11 6 1 -4 -16 -22 -18
-24 -2 -2 7 -1 6 3 -1 4 -8 8 -7 15 2z m829 -43 c-4 -12 -14 -24 -22 -26 -11
-3 -11 -1 1 7 8 6 11 11 6 11 -5 0 -3 7 4 15 17 21 21 19 11 -7z m599 7 c0 -2
-9 -3 -19 -2 -11 0 -18 5 -15 9 4 6 34 0 34 -7z m158 -21 c6 3 13 2 17 -4 3
-5 -2 -10 -12 -10 -15 0 -16 -2 -3 -10 13 -8 12 -10 -2 -10 -10 0 -18 6 -18
13 0 9 -3 8 -9 -2 -6 -9 -11 -10 -15 -2 -4 6 -2 11 3 11 6 0 11 8 11 18 0 13
2 14 9 3 5 -7 13 -11 19 -7z m-818 -19 c0 -2 -10 -10 -22 -16 -21 -11 -22 -11
-9 4 13 16 31 23 31 12z m740 -40 c14 -8 21 -14 15 -14 -5 0 -21 6 -35 14 -14
8 -20 14 -15 14 6 0 21 -6 35 -14z m211 -2 c11 -15 11 -16 0 -6 -7 6 -21 9
-30 6 -14 -4 -14 -3 -1 6 8 6 16 11 16 11 1 0 8 -8 15 -17z m-1551 -3 c0 -5
-5 -10 -11 -10 -5 0 -7 5 -4 10 3 6 8 10 11 10 2 0 4 -4 4 -10z m1093 -30 c3
-11 1 -18 -4 -14 -5 3 -9 12 -9 20 0 20 7 17 13 -6z m-1099 -6 c5 -14 4 -15
-9 -4 -17 14 -19 20 -6 20 5 0 12 -7 15 -16z m-64 -18 c0 -2 -7 -7 -16 -10 -8
-3 -12 -2 -9 4 6 10 25 14 25 6z m27 -29 c0 -8 -6 -14 -14 -14 -9 0 -10 4 -2
14 6 7 12 13 14 13 1 0 2 -6 2 -13z m1418 -227 c8 -13 -5 -13 -25 0 -13 8 -13
10 2 10 9 0 20 -4 23 -10z m40 -28 c-3 -3 -11 0 -18 7 -9 10 -8 11 6 5 10 -3
15 -9 12 -12z m-2220 -32 c-3 -5 -12 -10 -18 -10 -7 0 -6 4 3 10 19 12 23 12
15 0z m-110 -50 c-3 -5 -12 -10 -18 -10 -7 0 -6 4 3 10 19 12 23 12 15 0z
m175 -24 c0 -2 -7 -7 -16 -10 -8 -3 -12 -2 -9 4 6 10 25 14 25 6z m-127 -173
c-7 -2 -19 -2 -25 0 -7 3 -2 5 12 5 14 0 19 -2 13 -5z m201 -539 c5 -13 4 -14
-7 -6 -8 7 -18 8 -22 4 -5 -4 -5 -1 -1 6 10 17 23 15 30 -4z m2264 -11 c6 -16
13 -37 16 -48 6 -19 5 -19 -8 -2 -19 25 -22 22 -19 -20 2 -36 2 -37 -6 -8 -12
41 -13 105 -2 105 5 0 13 -12 19 -27z m-163 -133 c16 -18 16 -20 2 -20 -10 0
-17 -7 -17 -15 0 -8 -4 -15 -9 -15 -5 0 -16 -3 -24 -6 -20 -7 -40 30 -32 56 8
27 56 26 80 0z m144 -59 c17 -11 21 -61 7 -77 -13 -14 -46 25 -46 53 0 32 14
40 39 24z m-863 -695 c3 -8 13 -12 22 -9 12 3 13 2 4 -4 -18 -13 -72 -3 -72
13 0 18 39 18 46 0z m-79 -88 c-3 -8 -6 -5 -6 6 -1 11 2 17 5 13 3 -3 4 -12 1
-19z m57 -44 c3 -8 2 -12 -4 -9 -6 3 -10 10 -10 16 0 14 7 11 14 -7z"/>
<path d="M2282 2223 c-7 -3 3 -16 27 -34 22 -15 45 -37 50 -48 6 -10 21 -21
33 -25 13 -3 35 -17 51 -31 27 -26 27 -26 27 -4 0 27 -46 89 -66 89 -8 0 -19
11 -24 25 -7 18 -17 25 -35 25 -14 0 -25 -5 -25 -12 0 -7 -5 -6 -12 4 -7 9
-19 14 -26 11z"/>
<path d="M1876 2065 c4 -8 11 -15 16 -15 6 0 5 6 -2 15 -7 8 -14 15 -16 15 -2
0 -1 -7 2 -15z"/>
<path d="M1767 2020 c6 -21 40 -46 51 -36 3 3 0 6 -6 6 -7 0 -11 5 -9 11 1 6
-8 17 -20 26 -20 13 -21 13 -16 -7z"/>
<path d="M870 2018 c-57 -14 -88 -29 -94 -44 -3 -8 0 -14 7 -14 7 0 4 -5 -5
-11 -10 -5 -18 -16 -18 -24 0 -9 16 -3 49 18 102 67 136 83 147 66 3 -5 10 -9
17 -9 8 0 8 3 0 11 -15 15 -60 18 -103 7z"/>
<path d="M1920 2025 c0 -2 5 -16 12 -30 8 -17 17 -24 28 -20 9 3 28 -3 41 -14
24 -19 42 -25 66 -22 15 1 5 37 -16 53 -14 12 -15 11 -2 -5 8 -9 12 -20 9 -22
-3 -3 -11 6 -18 20 -13 25 -61 42 -81 29 -8 -4 -9 -3 -5 4 5 8 0 12 -13 12
-12 0 -21 -2 -21 -5z"/>
<path d="M996 1968 c-9 -5 -24 -7 -33 -4 -12 5 -14 1 -11 -19 3 -13 1 -22 -3
-19 -5 3 -9 -1 -10 -8 0 -7 -4 -3 -9 10 -11 27 -26 28 -40 2 -6 -10 -17 -17
-24 -14 -8 3 -17 0 -21 -5 -3 -6 -11 -9 -16 -6 -5 4 -9 1 -9 -5 0 -6 -6 -8
-12 -4 -9 5 -10 4 -3 -4 7 -8 32 -6 88 4 55 10 83 12 91 5 9 -8 24 -5 51 9 52
27 109 26 136 -1 23 -23 29 -21 32 10 1 11 6 21 11 21 5 0 6 3 3 7 -4 3 -1 13
5 22 10 13 10 14 -1 4 -8 -7 -22 -8 -35 -4 -21 8 -74 8 -111 -1 -11 -3 -29 -2
-41 2 -11 5 -28 4 -38 -2z"/>
<path d="M1540 1960 c-12 -8 -10 -10 8 -10 13 0 20 4 17 10 -7 12 -6 12 -25 0z"/>
<path d="M1625 1959 c6 -9 3 -11 -11 -6 -18 7 -18 6 1 -9 11 -8 32 -14 48 -11
15 2 27 0 27 -4 0 -11 50 -17 57 -6 3 6 1 7 -5 3 -7 -4 -12 -1 -12 8 0 8 -5
18 -12 22 -7 4 -8 3 -4 -4 10 -17 -6 -15 -33 5 -14 9 -21 11 -17 5 9 -15 1
-15 -26 -1 -16 9 -19 8 -13 -2z"/>
<path d="M1395 1950 c-4 -6 -11 -8 -16 -5 -5 4 -9 -2 -9 -11 0 -14 -3 -15 -12
-6 -18 18 -33 15 -18 -3 7 -9 19 -14 26 -11 7 3 15 0 17 -7 2 -7 3 -4 2 6 -2
9 0 17 5 17 4 0 10 7 14 15 6 17 0 20 -9 5z"/>
<path d="M2024 1914 c3 -8 6 -30 6 -47 1 -27 2 -29 11 -14 5 9 7 22 4 27 -3 6
-2 10 4 10 15 0 2 27 -16 34 -11 5 -13 2 -9 -10z"/>
<path d="M1646 1905 c4 -8 10 -15 15 -15 5 0 9 -5 9 -11 0 -23 42 -69 63 -70
l22 0 -21 -9 c-12 -5 -25 -13 -29 -19 -10 -17 -40 -13 -58 7 -11 12 -13 22 -7
32 15 23 12 29 -22 50 -41 25 -153 29 -161 6 -3 -8 -1 -17 6 -20 9 -3 9 -5 0
-5 -6 -1 -15 4 -18 9 -9 15 -27 12 -19 -2 4 -7 -2 -5 -13 5 -11 9 -23 17 -27
17 -4 0 -3 -8 3 -17 6 -13 4 -22 -7 -33 -14 -13 -15 -13 -10 0 4 12 -8 15 -71
14 -42 -1 -85 -3 -96 -5 -16 -3 -19 1 -17 19 2 12 -1 22 -7 22 -6 0 -8 -7 -5
-15 4 -8 2 -15 -4 -15 -6 0 -13 6 -15 13 -4 9 -6 9 -6 -1 -1 -8 -6 -10 -13 -6
-16 10 -108 14 -108 5 0 -4 -18 -14 -40 -21 -21 -7 -38 -16 -35 -19 2 -4 -5
-8 -16 -8 -18 -2 -19 0 -7 14 10 13 10 15 0 9 -7 -4 -20 -2 -29 6 -14 11 -16
11 -8 -2 7 -12 6 -13 -6 -4 -19 16 -103 3 -127 -19 -10 -10 -22 -17 -25 -17
-12 0 -7 40 8 70 22 42 11 37 -16 -7 -13 -20 -25 -56 -27 -80 -3 -38 -1 -43
17 -43 11 0 22 -4 25 -8 6 -9 -29 -42 -44 -42 -6 0 -10 -5 -10 -11 0 -5 -4 -8
-9 -4 -6 3 -8 -4 -6 -15 2 -11 0 -18 -6 -15 -5 4 -9 2 -9 -4 0 -6 -10 -19 -21
-30 -22 -20 -20 -59 2 -45 7 4 9 3 6 -3 -4 -6 2 -18 12 -27 17 -15 19 -15 31
0 11 12 11 17 1 23 -9 6 -6 14 9 32 12 13 19 18 15 12 -4 -9 5 -13 32 -14 23
-1 29 -3 15 -6 -12 -2 -20 -8 -17 -13 3 -5 -4 -12 -16 -15 -20 -7 -20 -7 -2
-22 17 -14 17 -14 0 -9 -11 4 -16 2 -12 -5 4 -6 13 -8 21 -5 7 3 21 -2 30 -11
15 -15 14 -18 -5 -33 -12 -8 -19 -19 -15 -23 12 -12 24 -8 24 9 0 8 5 12 11 9
7 -5 5 -13 -6 -25 -13 -15 -14 -19 -1 -29 10 -9 16 -9 21 -1 4 6 4 14 1 17 -3
3 -1 14 4 24 7 12 6 19 -3 22 -7 4 -6 6 4 6 10 1 19 13 22 29 3 15 11 41 18
57 15 37 12 64 -9 89 -11 13 -12 17 -3 11 9 -5 12 -4 8 2 -8 12 -59 3 -95 -16
-18 -9 -21 -9 -16 3 6 15 73 46 98 46 21 0 38 -24 25 -37 -7 -7 -6 -12 5 -16
19 -8 29 19 15 45 -6 11 -9 22 -6 24 2 2 10 -7 17 -21 11 -20 11 -29 1 -49 -8
-13 -10 -29 -6 -36 4 -6 0 -19 -9 -28 -9 -11 -12 -23 -7 -31 7 -11 12 -10 28
6 13 13 26 17 39 12 10 -4 13 -8 7 -8 -7 -1 -14 0 -15 1 -2 2 -17 -7 -34 -19
-17 -12 -34 -20 -38 -18 -3 3 -4 2 -1 -2 3 -3 0 -12 -7 -20 -8 -11 -7 -17 8
-28 16 -13 17 -14 2 -9 -21 7 -26 -20 -6 -32 7 -5 8 -2 3 7 -5 8 -4 10 0 6 5
-4 10 -15 11 -25 2 -9 7 -18 13 -20 23 -8 -30 -71 -60 -72 -9 0 -16 -6 -16
-13 0 -9 16 -11 61 -6 71 7 96 16 115 42 7 10 20 16 28 13 8 -3 12 -2 9 3 -3
4 4 18 15 30 11 12 21 30 22 41 1 10 5 18 11 17 5 -1 16 9 24 23 12 22 13 22
9 3 -3 -15 1 -23 17 -28 11 -4 24 -7 29 -6 4 1 7 -3 7 -9 0 -13 -10 -12 -39 4
-20 11 -27 11 -38 1 -18 -18 -16 -45 3 -45 8 0 13 4 10 9 -3 5 1 12 10 15 9 3
12 2 9 -5 -4 -6 2 -9 17 -7 32 5 118 41 118 51 0 4 10 7 22 7 12 0 30 7 40 17
10 9 18 13 18 10 0 -14 -43 -45 -56 -40 -8 3 -14 1 -14 -5 0 -6 -16 -16 -35
-22 -19 -6 -34 -17 -32 -23 1 -7 -6 -11 -17 -9 -17 3 -18 1 -7 -12 12 -14 15
-14 37 0 13 9 21 21 17 27 -3 5 -1 7 5 3 5 -3 12 0 15 6 2 7 8 10 12 6 4 -4
-3 -15 -16 -25 -12 -10 -36 -31 -53 -46 -26 -24 -27 -27 -9 -22 12 3 24 1 28
-5 4 -6 3 -10 -2 -9 -23 4 -31 -3 -28 -22 3 -16 0 -19 -13 -14 -13 5 -14 3 -5
-6 12 -12 37 -3 28 11 -3 5 0 12 6 16 7 4 9 3 5 -4 -6 -11 8 -18 57 -26 16 -3
36 -11 44 -18 17 -14 46 -12 77 4 15 8 16 12 5 19 -8 5 -9 9 -4 9 6 0 17 -4
25 -10 9 -6 20 -5 30 3 13 10 13 10 2 -4 -7 -9 -25 -19 -41 -22 -18 -4 -30
-14 -34 -28 -6 -21 -7 -21 -30 -7 -32 22 -59 6 -52 -30 l5 -27 -12 28 c-18 40
-44 35 -65 -15 -9 -20 -17 -25 -32 -21 -12 3 -31 -3 -47 -16 -15 -12 -33 -21
-40 -21 -8 0 -14 -5 -14 -11 0 -6 -7 -4 -15 4 -18 18 -58 11 -51 -9 3 -9 -1
-14 -12 -14 -15 0 -15 -2 -2 -10 13 -8 12 -10 -2 -10 -10 0 -18 4 -18 10 0 23
-39 30 -74 13 -34 -16 -49 -43 -25 -43 5 0 8 4 4 9 -3 5 0 13 6 17 7 4 9 3 5
-4 -3 -6 -2 -13 4 -17 6 -4 8 -11 5 -16 -4 -5 1 -9 9 -9 9 0 16 -4 16 -9 0 -8
7 -12 61 -30 24 -8 25 -6 21 18 -2 14 -12 32 -21 39 -14 12 -14 13 4 10 11 -2
36 -19 56 -38 19 -19 52 -50 73 -68 21 -18 36 -36 33 -39 -3 -3 -31 9 -62 27
-33 19 -54 26 -53 19 2 -8 -7 -15 -19 -17 -31 -5 -29 -12 12 -52 20 -19 33
-40 31 -47 -3 -8 2 -13 12 -13 9 0 28 -9 42 -20 21 -17 22 -19 5 -14 l-20 6
20 -13 c11 -7 26 -14 33 -15 7 -1 33 -12 57 -23 24 -11 50 -22 57 -23 7 -2 16
-7 20 -12 3 -5 15 -11 25 -12 50 -8 73 -15 132 -39 35 -15 72 -25 82 -22 11 3
17 1 14 -3 -3 -5 -1 -11 5 -15 5 -3 10 -1 10 6 0 8 5 7 17 -2 14 -12 16 -12
11 1 -4 11 1 16 18 18 13 1 24 -3 24 -9 0 -5 -6 -7 -12 -4 -7 4 -4 -1 6 -9 14
-11 23 -13 32 -5 8 7 13 6 16 -2 2 -7 22 -13 44 -13 21 -1 45 -5 53 -10 11 -7
12 -6 6 5 -7 12 -6 12 9 0 15 -13 19 -13 27 0 5 8 9 9 9 3 0 -13 43 -10 84 6
15 5 33 7 39 3 8 -4 8 -1 -1 9 -10 12 -9 18 3 28 13 11 14 10 10 -3 -4 -8 -2
-18 4 -22 8 -4 8 -13 0 -28 -12 -22 -12 -22 8 -2 14 14 17 22 9 27 -7 5 -4 8
7 8 16 0 22 12 18 34 -2 11 15 94 25 120 5 14 4 17 -4 12 -7 -4 -12 -2 -12 3
0 6 -4 11 -10 11 -5 0 -10 -7 -10 -15 0 -8 5 -15 10 -15 6 0 10 -7 10 -15 0
-12 -3 -12 -18 3 -11 9 -17 20 -15 25 2 4 -1 7 -7 7 -6 0 -9 4 -6 9 3 4 -8 7
-24 5 -30 -4 -49 10 -30 21 6 4 8 11 4 16 -3 5 0 18 7 27 7 9 10 14 5 10 -5
-4 -15 -1 -23 7 -11 12 -19 13 -36 4 -12 -7 -19 -8 -15 -4 4 5 3 14 -3 22 -6
7 -8 13 -3 13 5 1 -2 8 -16 16 -14 8 -18 13 -9 10 9 -2 22 1 29 7 10 9 11 9 6
0 -8 -14 3 -43 16 -43 5 0 7 4 4 9 -4 5 0 12 6 14 10 4 10 6 1 6 -7 1 -13 6
-13 11 0 12 32 9 41 -4 8 -10 121 14 131 27 3 6 15 11 26 12 11 0 31 9 45 18
14 9 37 19 51 23 14 3 29 10 32 15 3 5 11 6 17 3 7 -4 9 -4 5 0 -8 9 2 24 47
69 17 17 24 27 16 22 -10 -5 -12 -4 -7 4 4 6 11 9 15 6 5 -2 21 7 35 20 15 14
24 25 19 25 -4 0 9 11 30 25 20 14 37 31 38 38 2 34 11 62 22 69 6 4 8 8 3 8
-5 0 -3 6 3 13 6 8 8 17 4 20 -3 4 -1 7 5 7 7 0 12 5 12 11 0 5 -6 7 -12 4 -7
-4 -6 0 3 7 9 7 20 28 23 46 4 17 12 32 17 32 6 0 8 4 5 9 -4 5 0 12 6 14 7 3
4 6 -7 6 -14 1 -16 4 -7 9 19 13 5 37 -23 38 -14 1 -22 -2 -19 -7 3 -5 -3 -6
-12 -2 -13 5 -16 3 -11 -10 3 -9 2 -17 -3 -17 -5 0 -12 9 -15 20 -3 11 -11 20
-16 20 -6 0 -7 -6 -3 -12 5 -10 4 -10 -6 -1 -10 9 -19 9 -39 -1 -32 -16 -106
-15 -123 2 -13 13 -38 16 -38 5 0 -5 -14 -8 -30 -9 -24 -1 -28 2 -19 12 6 8
16 11 22 7 6 -4 8 0 4 10 -3 10 -2 17 3 17 6 0 10 -6 10 -14 0 -9 7 -12 20 -9
11 3 17 9 14 14 -3 5 -3 9 1 9 3 0 10 -11 15 -25 10 -25 30 -35 30 -14 0 6 6
9 14 6 7 -3 18 -1 24 5 15 15 -3 48 -26 49 -14 0 -14 2 3 9 16 7 13 9 -17 9
-28 1 -38 -3 -38 -15 0 -8 -4 -12 -10 -9 -5 3 -10 1 -10 -6 0 -7 -3 -9 -6 -6
-4 4 1 18 11 33 11 17 12 23 4 18 -24 -15 -42 -14 -29 1 12 14 -2 30 -14 17
-4 -4 -17 -7 -29 -7 -12 -1 -21 -6 -19 -13 1 -7 -1 -11 -5 -10 -17 3 -88 -37
-111 -62 -7 -8 -11 -9 -7 -2 8 16 -10 15 -24 -2 -8 -9 -9 -26 -3 -52 8 -38 5
-114 -5 -124 -2 -3 -4 15 -3 40 4 70 3 75 -15 60 -8 -7 -15 -20 -15 -29 0 -13
-2 -14 -9 -2 -6 10 -3 20 12 32 24 19 32 90 10 82 -7 -3 -13 2 -13 10 0 9 -5
19 -10 22 -6 4 -9 1 -8 -6 2 -7 -1 -14 -7 -14 -22 -3 -45 -18 -39 -26 3 -5 -1
-6 -9 -4 -20 8 -64 -37 -61 -63 2 -11 -1 -24 -8 -28 -7 -5 -8 -3 -3 6 5 9 4
11 -3 6 -7 -4 -12 -13 -12 -19 0 -7 -9 -30 -20 -52 -11 -22 -20 -45 -20 -53 0
-7 -4 -11 -8 -8 -5 3 -4 -25 1 -61 6 -40 6 -68 0 -72 -5 -3 -15 -22 -23 -41
-17 -44 -48 -90 -61 -90 -5 0 2 12 16 27 14 15 25 37 25 49 0 12 10 34 21 48
20 25 21 31 9 69 -11 39 -40 91 -40 74 0 -4 -11 0 -25 9 -24 16 -25 15 -36
-12 -8 -24 -12 -26 -19 -14 -8 15 -28 17 -101 11 -8 0 -24 -9 -35 -18 -29 -26
-43 -26 -37 0 5 18 3 20 -8 10 -7 -7 -24 -13 -39 -13 -21 1 -18 3 15 15 22 8
41 15 43 15 2 0 0 5 -3 10 -3 6 3 10 14 10 10 0 21 -6 24 -12 3 -10 7 -10 20
0 12 10 24 11 44 4 20 -6 40 -5 67 4 21 8 42 11 47 8 5 -3 6 1 3 9 -2 7 0 26
6 42 9 25 9 26 -5 15 -8 -7 -12 -16 -9 -21 13 -22 -15 -6 -30 16 -9 14 -12 25
-7 25 5 0 12 -7 15 -16 8 -21 28 -7 21 16 -4 12 1 19 15 23 11 3 20 12 20 21
0 17 26 11 48 -11 7 -7 21 -13 29 -13 9 0 13 3 10 7 -4 3 -3 11 2 17 6 7 3 18
-8 31 -19 23 -41 30 -41 14 0 -6 -6 -9 -14 -6 -8 3 -20 -1 -26 -8 -15 -19 -33
-8 -25 14 5 13 4 14 -6 4 -7 -7 -21 -13 -31 -13 -9 0 -22 -9 -28 -20 -6 -11
-16 -18 -21 -14 -7 4 -5 12 5 23 18 20 4 43 -20 34 -8 -3 -14 -1 -14 5 0 11
-28 10 -70 -2 l-25 -7 23 14 c23 13 23 13 3 31 -15 13 -20 14 -24 4 -4 -9 -8
-10 -14 -2 -4 5 -18 17 -30 25 l-21 15 24 21 c13 12 24 17 24 13 0 -5 6 -7 13
-4 8 3 20 -2 27 -11 7 -8 18 -15 24 -15 6 0 4 5 -4 10 -10 7 -11 10 -2 10 20
0 25 -28 8 -45 -9 -9 -16 -19 -16 -22 0 -4 3 -3 7 0 3 4 12 2 19 -4 10 -8 12
-6 9 9 -3 16 1 19 18 14 12 -3 27 -9 34 -14 7 -5 17 -7 23 -3 5 3 10 1 10 -5
0 -8 6 -8 21 0 11 6 25 9 32 7 7 -2 29 4 50 15 20 10 37 16 37 12 0 -4 6 -1
14 5 8 6 18 11 22 10 28 -5 56 3 71 20 14 17 49 19 39 2 -2 -3 19 -5 47 -4 29
0 67 2 85 2 25 1 32 5 32 20 0 11 -5 21 -11 23 -7 2 -5 9 5 17 14 12 16 11 9
-5 -6 -17 -5 -17 10 -5 13 10 20 11 30 2 10 -8 17 -7 25 1 17 17 15 28 -5 22
-17 -5 -17 -5 0 6 18 11 24 60 8 60 -19 0 -41 -12 -36 -20 3 -5 1 -11 -5 -15
-5 -3 -10 1 -10 10 0 9 -4 13 -10 10 -5 -3 -10 -2 -10 4 0 20 -44 50 -74 51
-80 1 -120 7 -124 18 -3 9 -7 10 -17 2 -10 -8 -15 -8 -21 1 -4 8 -3 9 4 5 7
-4 12 -2 12 3 0 10 -15 15 -34 12 -5 -1 -26 5 -48 14 -48 19 -59 19 -52 0z
m108 -30 c-4 -8 -11 -12 -16 -9 -6 4 -5 10 3 15 19 12 19 11 13 -6z m-514
-132 c0 -16 -3 -23 -8 -16 -4 7 -32 11 -75 10 -37 -1 -67 1 -67 4 0 11 57 27
103 28 45 1 47 0 47 -26z m641 -60 c13 -17 13 -17 -6 -3 -11 8 -22 16 -24 17
-2 2 0 3 6 3 6 0 17 -8 24 -17z m-1124 -79 c-3 -3 -12 -4 -19 -1 -8 3 -5 6 6
6 11 1 17 -2 13 -5z m217 -49 c3 -9 0 -15 -9 -15 -9 0 -12 6 -9 15 4 8 7 15 9
15 2 0 5 -7 9 -15z m156 1 c0 -3 -4 -8 -10 -11 -5 -3 -10 -1 -10 4 0 6 5 11
10 11 6 0 10 -2 10 -4z m240 -29 c0 -2 -12 -14 -26 -28 -25 -22 -26 -23 -15
-2 9 18 19 26 39 32 1 1 2 0 2 -2z m718 -22 c-3 -3 -9 2 -12 12 -6 14 -5 15 5
6 7 -7 10 -15 7 -18z m292 2 c0 -2 -10 -12 -22 -23 l-23 -19 19 23 c18 21 26
27 26 19z m-1360 -27 c8 -5 11 -10 5 -10 -5 0 -17 5 -25 10 -8 5 -10 10 -5 10
6 0 17 -5 25 -10z m895 -138 c-15 -16 -16 -15 -4 12 7 15 15 23 17 16 3 -7 -3
-19 -13 -28z m20 -31 c-3 -6 -11 -11 -16 -11 -5 0 -4 6 3 14 14 16 24 13 13
-3z m-459 -29 c-17 -16 -18 -16 -5 5 7 12 15 20 18 17 3 -2 -3 -12 -13 -22z
m-109 -88 c-3 -3 -12 -4 -19 -1 -8 3 -5 6 6 6 11 1 17 -2 13 -5z m633 -86 c0
-5 -7 -8 -16 -8 -8 0 -12 -5 -8 -11 4 -8 -1 -9 -17 -4 -34 10 -34 12 -15 34
15 16 21 18 37 8 10 -6 19 -15 19 -19z m-414 -64 c-4 -9 -9 -15 -11 -12 -3 3
-3 13 1 22 4 9 9 15 11 12 3 -3 3 -13 -1 -22z m160 -36 c-2 -16 -7 -32 -11
-36 -5 -4 -5 1 -2 11 4 11 1 17 -9 17 -9 0 -12 -5 -8 -12 4 -8 3 -9 -2 -5 -11
10 -12 40 -1 48 21 15 36 5 33 -23z m22 -53 c-3 -3 -9 2 -12 12 -6 14 -5 15 5
6 7 -7 10 -15 7 -18z m-311 -81 c53 -5 68 -12 105 -44 l42 -38 -37 -7 c-20 -4
-37 -12 -37 -17 0 -6 -6 -5 -15 2 -8 7 -15 9 -15 4 0 -5 -5 -2 -10 6 -7 11 -5
19 8 28 27 20 2 29 -97 34 -85 5 -131 19 -131 38 0 10 59 8 187 -6z m400 -61
c-4 -3 -2 -12 4 -19 14 -18 -7 -29 -25 -12 -11 11 -11 15 3 25 17 13 29 17 18
6z m80 -65 c-3 -8 -6 -5 -6 6 -1 11 2 17 5 13 3 -3 4 -12 1 -19z m-137 -3
c-14 -16 -25 -21 -16 -6 4 5 0 12 -6 14 -7 3 -2 6 11 6 20 1 21 -1 11 -14z
m110 -5 c0 -5 -2 -10 -4 -10 -3 0 -8 5 -11 10 -3 6 -1 10 4 10 6 0 11 -4 11
-10z m-339 -73 c-10 -9 -11 -8 -5 6 3 10 9 15 12 12 3 -3 0 -11 -7 -18z"/>
<path d="M1869 1910 c-8 -6 -7 -9 2 -13 10 -4 10 -6 2 -6 -17 -1 -17 -21 0
-21 8 0 19 11 24 23 9 19 8 24 -3 24 -7 0 -18 -4 -25 -7z"/>
<path d="M582 1852 c-10 -29 -7 -42 9 -42 10 0 17 47 9 60 -5 8 -11 0 -18 -18z"/>
<path d="M2610 1821 c0 -5 9 -11 21 -14 16 -4 18 -3 8 9 -13 16 -29 19 -29 5z"/>
<path d="M2394 1761 c11 -11 23 -21 28 -21 14 0 -1 19 -25 31 -22 12 -22 12
-3 -10z"/>
<path d="M606 1761 c-4 -6 -16 -11 -26 -11 -10 0 -20 -4 -22 -10 -4 -12 -55
-15 -90 -5 -25 6 -28 4 -28 -15 0 -13 7 -28 16 -34 13 -10 11 -17 -20 -50 -20
-20 -36 -44 -36 -52 0 -8 -4 -12 -10 -9 -15 10 -12 -3 7 -25 26 -30 36 -25 53
27 15 48 57 89 81 81 9 -3 1 -16 -23 -40 l-35 -36 24 -11 c40 -18 51 -13 71
32 11 23 30 53 42 67 13 14 36 39 52 56 17 18 23 31 16 32 -7 1 -25 4 -39 8
-15 3 -30 1 -33 -5z"/>
<path d="M2562 1740 c0 -14 2 -19 5 -12 2 6 2 18 0 25 -3 6 -5 1 -5 -13z"/>
<path d="M2595 1730 c28 -12 37 -12 30 0 -3 6 -16 10 -28 9 -21 0 -21 -1 -2
-9z"/>
<path d="M2590 1710 c20 -13 33 -13 25 0 -3 6 -14 10 -23 10 -15 0 -15 -2 -2
-10z"/>
<path d="M2048 1693 c7 -3 16 -2 19 1 4 3 -2 6 -13 5 -11 0 -14 -3 -6 -6z"/>
<path d="M2404 1631 c6 -10 -18 -34 -26 -26 -2 3 -5 -1 -5 -9 0 -11 7 -11 44
1 23 8 46 20 49 25 4 6 1 8 -7 6 -8 -3 -24 -1 -37 3 -13 5 -21 5 -18 0z"/>
<path d="M592 1600 c-7 -11 -10 -20 -6 -20 7 0 34 27 34 34 0 13 -16 5 -28
-14z"/>
<path d="M2336 1582 c-3 -5 1 -9 9 -9 8 0 12 4 9 9 -3 4 -7 8 -9 8 -2 0 -6 -4
-9 -8z"/>
<path d="M579 1561 c11 -7 8 -14 -15 -34 -25 -22 -27 -28 -15 -39 10 -9 12 -9
7 -1 -5 9 -2 11 8 7 9 -3 14 -10 11 -14 -3 -5 4 -11 15 -15 11 -3 20 -12 20
-20 0 -7 16 -22 35 -34 21 -12 35 -28 35 -39 0 -11 7 -25 15 -32 8 -7 15 -20
15 -30 0 -22 11 -32 24 -21 6 5 14 10 19 10 4 1 7 3 7 6 0 3 7 19 16 36 19 37
13 56 -21 69 -14 5 -25 16 -25 24 0 7 -11 17 -25 20 -14 4 -25 13 -25 21 0 21
-50 71 -67 67 -8 -2 -12 1 -9 6 3 6 -1 13 -10 16 -23 9 -31 7 -15 -3z m31 -41
c0 -5 -2 -10 -4 -10 -3 0 -8 5 -11 10 -3 6 -1 10 4 10 6 0 11 -4 11 -10z m0
-40 c0 -5 -5 -10 -11 -10 -5 0 -7 5 -4 10 3 6 8 10 11 10 2 0 4 -4 4 -10z"/>
<path d="M2276 1553 c-6 -14 -5 -15 5 -6 7 7 10 15 7 18 -3 3 -9 -2 -12 -12z"/>
<path d="M514 1539 c26 -21 28 -21 44 -4 16 16 15 17 -11 13 -15 -3 -30 -1
-33 3 -3 5 -10 9 -16 9 -6 0 2 -10 16 -21z"/>
<path d="M721 1493 c-1 -17 16 -25 25 -12 4 7 3 9 -4 5 -5 -3 -13 0 -15 6 -4
9 -6 10 -6 1z"/>
<path d="M1677 1462 c-9 -2 -14 -8 -11 -14 4 -7 2 -8 -5 -4 -6 4 -18 2 -26 -4
-18 -15 -20 -46 -3 -56 7 -4 8 -3 4 4 -8 13 23 31 43 24 10 -3 12 0 8 11 -4
11 -2 14 9 10 8 -3 14 1 14 10 0 19 -9 25 -33 19z"/>
<path d="M1025 1389 c-4 -6 -3 -15 3 -21 6 -6 11 -4 15 6 7 18 -9 31 -18 15z"/>
<path d="M1179 1273 c-1 -4 -1 -12 0 -17 1 -5 -10 -6 -24 -4 -14 3 -25 2 -25
-3 0 -4 -10 -9 -22 -11 -17 -2 -23 -10 -23 -28 1 -14 -4 -28 -10 -32 -6 -5 -2
-8 9 -8 16 0 17 -2 5 -17 -13 -16 -12 -17 3 -4 10 7 15 18 12 23 -4 6 8 7 30
3 34 -7 36 -6 42 24 4 19 13 31 23 31 13 0 13 2 2 9 -7 5 -11 13 -7 19 3 6 2
13 -4 17 -5 3 -11 3 -11 -2z"/>
<path d="M1216 1261 c-3 -4 -1 -13 3 -20 6 -10 10 -8 15 5 6 15 9 16 16 4 5
-8 12 -11 16 -7 4 4 5 9 2 12 -9 10 -47 14 -52 6z"/>
<path d="M800 1183 c0 -7 1 -14 2 -15 1 -2 -5 -14 -12 -28 -12 -23 -12 -24 4
-11 14 12 16 12 10 -3 -5 -12 -2 -15 12 -10 17 5 17 4 -1 -12 l-20 -17 20 8
c11 4 25 8 30 9 6 1 15 4 20 7 6 4 24 10 40 14 l30 8 -25 7 c-16 5 -19 8 -7 9
9 1 17 6 17 12 0 6 -9 8 -20 4 -11 -4 -20 -2 -20 4 0 6 -14 8 -32 6 -19 -2
-36 1 -40 8 -6 9 -8 9 -8 0z"/>
<path d="M2278 823 c7 -3 16 -2 19 1 4 3 -2 6 -13 5 -11 0 -14 -3 -6 -6z"/>
<path d="M2727 819 c7 -7 15 -10 18 -7 3 3 -2 9 -12 12 -14 6 -15 5 -6 -5z"/>
<path d="M2204 813 c10 -11 37 -12 30 -2 -3 5 -12 9 -21 9 -9 0 -13 -3 -9 -7z"/>
<path d="M1988 433 c7 -3 16 -2 19 1 4 3 -2 6 -13 5 -11 0 -14 -3 -6 -6z"/>
</g>
</svg>
